PathFileType	4	(X/Y/Z)	F:\MotionCapture\20160217\3\Generated_files\2_Test01-Dynamic.trc
DataRate	CameraRate	NumFrames	NumMarkers	Units	OrigDataRate	OrigDataStartFrame	OrigNumFrames
120.00	120.00	       5	39	mm	120.00	518	       690
Frame#	Time	Top.Head			Front.Head			Rear.Head			R.Shoulder			R.Offset			R.Elbow			R.Wrist			L.Shoulder			L.Elbow			L.Wrist			R.ASIS			L.ASIS			V.Sacral			R.Thigh			R.Knee			R.Shank			R.Ankle			R.Heel			R.Toe			L.Thigh			L.Knee			L.Shank			L.Ankle			L.Heel			L.Toe			R1			R2			R3			R4			R5			R6			R7			L1			L2			L3			L4			L5			L6			L7			V_Mid_ASIS			V_Pelvis_Origin			V_R.Hip_JC			V_L.Hip_JC			V_R.Knee_JC			V_L.Knee_JC			V_R.Ankle_JC			V_L.Ankle_JC			V_Mid_Hip			V_Mid_Shoulder			V_R.Hand			V_L.Hand			V_R.Toe_Offset_Static			V_L.Toe_Offset_Static			V_R.Toe_Offset			V_L.Toe_Offset			
		X1	Y1	Z1	X2	Y2	Z2	X3	Y3	Z3	X4	Y4	Z4	X5	Y5	Z5	X6	Y6	Z6	X7	Y7	Z7	X8	Y8	Z8	X9	Y9	Z9	X10	Y10	Z10	X11	Y11	Z11	X12	Y12	Z12	X13	Y13	Z13	X14	Y14	Z14	X15	Y15	Z15	X16	Y16	Z16	X17	Y17	Z17	X18	Y18	Z18	X19	Y19	Z19	X20	Y20	Z20	X21	Y21	Z21	X22	Y22	Z22	X23	Y23	Z23	X24	Y24	Z24	X25	Y25	Z25	X26	Y26	Z26	X27	Y27	Z27	X28	Y28	Z28	X29	Y29	Z29	X30	Y30	Z30	X31	Y31	Z31	X32	Y32	Z32	X33	Y33	Z33	X34	Y34	Z34	X35	Y35	Z35	X36	Y36	Z36	X37	Y37	Z37	X38	Y38	Z38	X39	Y39	Z39	

518	4.308	-1199.44983	253.61940	1699.76855	-1303.42810	245.99661	1607.38013	-1086.09143	244.75835	1640.41931	-1121.85742	430.37650	1390.17017	-982.92004	150.74892	1264.26489	-1053.05896	514.36908	1068.44006	-1107.99683	507.64145	811.17188	-1154.36560	25.68608	1409.25330	-1183.61829	-98.86951	1096.46045	-1375.54639	-74.72247	924.13947	-1189.85681	350.22830	936.37579	-1181.10645	62.89459	926.44312	-958.52118	219.28822	922.59271	-1294.22766	297.97107	591.65009	-1246.02307	348.23798	462.95090	-1256.72412	260.75409	234.41040	-1203.42603	327.03033	66.32553	-1137.71033	266.00009	42.42706	-1350.79663	308.64392	43.15910	-1223.00745	70.23459	593.26495	-1110.93494	6.62264	442.47809	-1018.49969	79.17972	327.86646	-755.22772	30.37899	246.51802	-728.45654	101.43507	289.60086	-762.85382	20.68671	102.98774	-1395.07983	289.35904	38.69637	-1356.41138	270.96564	44.97762	-1256.36023	235.05840	52.09054	-1180.12573	234.63365	42.34914	-1168.54504	308.35153	41.76477	-1243.22839	335.00354	36.35500	-1308.55420	352.98352	35.49284	-777.68231	33.30987	60.04773	-774.83691	54.13375	90.64885	-775.68506	108.87373	175.84486	-746.82300	126.43916	251.59865	-724.93335	57.97503	268.62167	-730.65594	17.22944	198.97482	-743.09790	-0.90889	141.02614	
519	4.317	-1211.96375	254.23537	1702.63391	-1315.82861	246.37811	1610.11133	-1097.95288	245.56473	1643.56433	-1135.23853	430.95786	1393.47046	-994.35773	152.36696	1266.96216	-1072.89075	516.38568	1070.54224	-1135.04089	508.91144	815.28345	-1165.63501	25.99095	1411.99023	-1189.98926	-97.14529	1098.18079	-1376.41406	-75.36857	919.94727	-1201.87610	352.23407	938.76166	-1193.04700	64.06989	930.24268	-970.17963	220.05281	926.01898	-1299.64648	299.36539	590.73083	-1248.94775	348.74634	462.84222	-1257.49487	261.07565	234.18904	-1202.43994	327.63150	66.82981	-1137.92786	265.87616	42.70441	-1350.87036	308.74194	42.99383	-1242.00903	72.13617	598.49731	-1134.00549	7.92556	445.85767	-1043.27625	80.56954	330.81427	-779.91528	32.69750	247.62524	-751.41211	103.79770	288.55951	-794.38727	20.86078	104.68021	-1395.16492	289.55505	38.62126	-1356.38550	271.00815	44.95345	-1256.28223	235.15970	52.11758	-1180.01111	234.84164	42.49200	-1168.82129	308.44443	41.97829	-1243.11389	335.09262	36.31403	-1308.50903	353.15445	35.42950	-809.50964	33.68992	60.63294	-806.07043	54.16193	92.00330	-803.75372	109.93282	175.99286	-770.71033	128.34000	250.92616	-749.46820	60.09497	268.08493	-758.57550	18.17043	199.71890	-772.29956	0.18872	141.71985	
520	4.325	-1224.55115	254.50386	1705.46704	-1328.00867	246.76254	1612.66077	-1109.85999	245.81700	1646.90112	-1147.96912	430.94995	1396.69238	-1006.52728	154.47061	1269.73901	-1091.85486	518.16577	1072.70032	-1161.84424	510.31082	819.62262	-1176.15466	26.27934	1414.69885	-1196.55334	-95.92735	1100.30676	-1377.35876	-76.22932	915.76996	-1212.53870	353.68497	941.12872	-1205.39050	65.30649	933.90436	-981.84552	220.39804	929.13147	-1304.63098	300.57214	589.37695	-1251.90710	349.39319	462.88776	-1258.42102	261.13348	234.43237	-1203.39575	327.24371	66.31738	-1137.88135	265.97726	42.84984	-1350.88208	308.82977	42.93879	-1261.41199	73.46722	604.32953	-1156.92859	9.28819	449.72220	-1068.79895	81.60028	333.45291	-805.35815	34.46906	247.15965	-774.50403	105.99734	286.11728	-826.96643	21.73068	105.68215	-1395.18298	289.61176	38.56994	-1356.28711	271.02057	44.89660	-1255.85999	235.50554	52.03303	-1179.89563	235.10590	42.61977	-1168.36035	308.61798	42.08276	-1242.97046	335.19635	36.27567	-1308.44324	353.33145	35.35262	-842.61548	35.12319	60.75756	-838.31335	55.44142	92.50435	-831.73187	111.78078	176.30034	-795.48950	129.95216	249.59262	-773.78687	61.86794	266.21927	-785.73743	20.02114	198.00462	-802.73224	1.31291	141.34096	
521	4.333	-1236.61377	254.94673	1708.18164	-1340.12720	246.92247	1615.40796	-1122.20923	246.82344	1649.76697	-1160.14685	431.48080	1399.66528	-1018.42780	156.23322	1272.62659	-1111.21460	520.04370	1075.13647	-1188.93933	511.58179	824.64508	-1186.65271	26.29950	1417.55566	-1202.77173	-94.79754	1101.90930	-1377.49280	-76.91632	911.91382	-1223.51306	355.03751	943.46661	-1216.87402	67.18856	937.49701	-993.49921	221.07376	932.49011	-1309.35242	301.86008	588.00415	-1254.41968	349.64294	462.86737	-1258.79529	261.03546	234.60507	-1203.48877	327.35623	66.36957	-1137.86633	266.02451	43.19418	-1350.99841	308.97739	42.84406	-1280.21436	74.97974	610.24982	-1179.72974	10.60401	453.65155	-1094.08179	82.73341	335.89926	-832.79797	36.41254	245.68210	-798.98688	107.14008	283.23618	-858.47235	24.21830	104.19643	-1395.25623	289.66864	38.49492	-1356.27576	271.11304	44.82861	-1255.79749	235.62102	52.09834	-1179.53174	235.43468	42.76496	-1167.71509	308.41675	42.76625	-1242.95154	335.35645	36.22607	-1308.40149	353.52316	35.24457	-877.44965	36.79618	60.96666	-871.04730	57.54458	92.31987	-859.97449	113.75712	175.70065	-820.99371	131.44179	247.03101	-799.24554	62.97179	262.76764	-813.84106	21.74689	195.20825	-833.55005	3.18489	139.33865	
522	4.342	-1248.89282	255.37515	1710.75098	-1351.95667	247.02011	1617.62488	-1134.24939	247.07909	1652.96313	-1172.80579	431.45801	1402.97986	-1029.87476	158.10313	1275.30872	-1129.72412	521.94598	1077.80334	-1215.44995	512.44891	830.01270	-1196.95215	26.64514	1419.98853	-1209.11621	-93.60313	1103.84033	-1377.59912	-77.67850	908.02740	-1235.56531	357.24875	945.90320	-1229.13293	68.84455	941.12616	-1005.20142	220.74200	935.43597	-1314.11011	302.97516	586.84778	-1256.92053	350.35791	462.83710	-1259.22644	260.90689	234.61806	-1203.53662	327.43854	66.42413	-1137.91809	266.16284	43.49139	-1351.08252	309.09418	42.77916	-1298.81396	76.56440	616.08496	-1202.64612	11.64234	458.05502	-1119.44031	83.77625	338.35736	-858.81744	38.28914	241.60612	-823.37683	108.97112	278.84924	-892.06104	26.46927	103.24960	-1395.32910	289.74261	38.47580	-1356.32141	271.12686	44.86314	-1255.77051	235.64742	52.13744	-1180.53406	234.66388	43.19703	-1167.96057	308.49323	43.04739	-1242.43787	334.97705	35.90835	-1308.36731	353.65881	35.14389	-912.50763	39.69981	60.39158	-904.11395	59.96413	91.26387	-888.96021	116.01628	173.98979	-846.92340	133.52400	243.91521	-825.40259	64.81301	258.45172	-844.97546	22.01030	190.98596	-865.32953	5.11121	136.79584	
